# xmcd
#
# Track frame offsets: 
#        150
#        19098
#        35525
#        54660
#        71900
#        93658
#        112048
#        139078
#        156600
#        175725
#        192423
#        212378
#        233570
#        252863
#        272563
#        294993
#        315120
#        330375
#
# Disc length: 4681 seconds
#
# Revision: 9
# Processed by: cddbd v1.5.2PL0 Copyright (c) Steve Scherf et al.
# Submitted via: ExactAudioCopyFreeDBPlugin 1.0
#
DISCID=00124712
DTITLE=Air Supply - Forever Love - 36 Greatest Hits (1980 - 2001) - BS
DTITLE=CD 2
DYEAR=2003
DGENRE=Pop
TTITLE0=Lonely is the night
TTITLE1=What becomes of the broken hearted?
TTITLE2=Someone who believes in you
TTITLE3=Where did the feeling go
TTITLE4=Without you (Live)
TTITLE5=Goodbye
TTITLE6=It's never too late
TTITLE7=Too sentimental
TTITLE8=Always
TTITLE9=Unchained melody
TTITLE10=I want to give it all (Live)
TTITLE11=The way I feel
TTITLE12=Now and forever
TTITLE13=Strong strong wind
TTITLE14=Once
TTITLE15=Daybreak
TTITLE16=Only one forever
TTITLE17=Yours truly
EXTD=YEAR: 2003
EXTT0=
EXTT1=
EXTT2=
EXTT3=
EXTT4=
EXTT5=
EXTT6=
EXTT7=
EXTT8=
EXTT9=
EXTT10=
EXTT11=
EXTT12=
EXTT13=
EXTT14=
EXTT15=
EXTT16=
EXTT17=
PLAYORDER=
